HIERARCHY
ROOT Junyuan_V1:Solving:Hips
{
	OFFSET 0.000000 0.000000 0.000000
	CHANNELS 6 Xposition Yposition Zposition Xrotation Yrotation Zrotation
	JOINT Junyuan_V1:Solving:Spine
	{
		OFFSET 0.000000 -8.943189 2.778120
		CHANNELS 6 Xposition Yposition Zposition Xrotation Yrotation Zrotation
		JOINT Junyuan_V1:Solving:Spine1
		{
			OFFSET 0.000000 -9.944814 1.753542
			CHANNELS 6 Xposition Yposition Zposition Xrotation Yrotation Zrotation
			JOINT Junyuan_V1:Solving:Spine2
			{
				OFFSET 0.000000 -10.059801 0.880121
				CHANNELS 6 Xposition Yposition Zposition Xrotation Yrotation Zrotation
				JOINT Junyuan_V1:Solving:Spine3
				{
					OFFSET 0.000000 -10.098228 0.000000
					CHANNELS 6 Xposition Yposition Zposition Xrotation Yrotation Zrotation
					JOINT Junyuan_V1:Solving:Neck
					{
						OFFSET 0.000000 -12.983437 -1.298342
						CHANNELS 6 Xposition Yposition Zposition Xrotation Yrotation Zrotation
						JOINT Junyuan_V1:Solving:Neck1
						{
							OFFSET 0.000000 -8.085114 -0.707354
							CHANNELS 6 Xposition Yposition Zposition Xrotation Yrotation Zrotation
							JOINT Junyuan_V1:Solving:Head
							{
								OFFSET 0.000000 -7.992695 -1.409326
								CHANNELS 6 Xposition Yposition Zposition Xrotation Yrotation Zrotation
								JOINT Junyuan_V1:Solving:HeadEnd
								{
									OFFSET 0.000000 -9.728081 0.000002
									CHANNELS 6 Xposition Yposition Zposition Xrotation Yrotation Zrotation
									End Site
									{
										OFFSET 0.000000 -9.728081 0.000002
									}
								}
							}
						}
					}
					JOINT Junyuan_V1:Solving:RightShoulder
					{
						OFFSET 0.000000 -9.273884 -6.154356
						CHANNELS 6 Xposition Yposition Zposition Xrotation Yrotation Zrotation
						JOINT Junyuan_V1:Solving:RightArm
						{
							OFFSET -19.110832 -0.000008 0.000000
							CHANNELS 6 Xposition Yposition Zposition Xrotation Yrotation Zrotation
							JOINT Junyuan_V1:Solving:RightForeArm
							{
								OFFSET -27.916382 -0.000008 0.000000
								CHANNELS 6 Xposition Yposition Zposition Xrotation Yrotation Zrotation
								JOINT Junyuan_V1:Solving:RightHand
								{
									OFFSET -21.757072 -0.000008 0.000000
									CHANNELS 6 Xposition Yposition Zposition Xrotation Yrotation Zrotation
									JOINT Junyuan_V1:Solving:RightHandThumb1
									{
										OFFSET -3.656471 2.766285 -2.718907
										CHANNELS 6 Xposition Yposition Zposition Xrotation Yrotation Zrotation
										End Site
										{
											OFFSET -5.307442 0.000000 -5.356520
										}
									}
									JOINT Junyuan_V1:Solving:RightHandMiddle1
									{
										OFFSET -9.750572 -0.000004 0.062504
										CHANNELS 6 Xposition Yposition Zposition Xrotation Yrotation Zrotation
										End Site
										{
											OFFSET -7.540642 -0.000004 0.000000
										}
									}
								}
							}
						}
					}
					JOINT Junyuan_V1:Solving:LeftShoulder
					{
						OFFSET 0.000000 -9.273884 -6.154356
						CHANNELS 6 Xposition Yposition Zposition Xrotation Yrotation Zrotation
						JOINT Junyuan_V1:Solving:LeftArm
						{
							OFFSET 19.110832 -0.000008 0.000000
							CHANNELS 6 Xposition Yposition Zposition Xrotation Yrotation Zrotation
							JOINT Junyuan_V1:Solving:LeftForeArm
							{
								OFFSET 27.916382 -0.000008 0.000000
								CHANNELS 6 Xposition Yposition Zposition Xrotation Yrotation Zrotation
								JOINT Junyuan_V1:Solving:LeftHand
								{
									OFFSET 21.757072 -0.000008 0.000000
									CHANNELS 6 Xposition Yposition Zposition Xrotation Yrotation Zrotation
									JOINT Junyuan_V1:Solving:LeftHandThumb1
									{
										OFFSET 3.656471 2.766285 -2.718907
										CHANNELS 6 Xposition Yposition Zposition Xrotation Yrotation Zrotation
										End Site
										{
											OFFSET 5.307442 0.000000 -5.356520
										}
									}
									JOINT Junyuan_V1:Solving:LeftHandMiddle1
									{
										OFFSET 9.750572 -0.000004 0.062504
										CHANNELS 6 Xposition Yposition Zposition Xrotation Yrotation Zrotation
										End Site
										{
											OFFSET 7.540642 -0.000004 0.000000
										}
									}
								}
							}
						}
					}
				}
			}
		}
	}
	JOINT Junyuan_V1:Solving:RightUpLeg
	{
		OFFSET -8.521003 0.000000 0.000000
		CHANNELS 6 Xposition Yposition Zposition Xrotation Yrotation Zrotation
		JOINT Junyuan_V1:Solving:RightLeg
		{
			OFFSET 0.000000 41.622898 -0.000006
			CHANNELS 6 Xposition Yposition Zposition Xrotation Yrotation Zrotation
			JOINT Junyuan_V1:Solving:RightFoot
			{
				OFFSET 0.000000 37.258389 -0.000006
				CHANNELS 6 Xposition Yposition Zposition Xrotation Yrotation Zrotation
				JOINT Junyuan_V1:Solving:RightForeFoot
				{
					OFFSET 0.000000 3.234154 -0.000000
					CHANNELS 6 Xposition Yposition Zposition Xrotation Yrotation Zrotation
					JOINT Junyuan_V1:Solving:RightToeBase
					{
						OFFSET 0.000000 0.000000 -12.665958
						CHANNELS 6 Xposition Yposition Zposition Xrotation Yrotation Zrotation
						JOINT Junyuan_V1:Solving:RightToeBaseEnd
						{
							OFFSET 0.000000 0.000000 -2.833065
							CHANNELS 6 Xposition Yposition Zposition Xrotation Yrotation Zrotation
							End Site
							{
								OFFSET 0.000000 -2.833061 0.000002
							}
						}
					}
				}
			}
		}
	}
	JOINT Junyuan_V1:Solving:LeftUpLeg
	{
		OFFSET 8.521003 0.000000 0.000000
		CHANNELS 6 Xposition Yposition Zposition Xrotation Yrotation Zrotation
		JOINT Junyuan_V1:Solving:LeftLeg
		{
			OFFSET 0.000000 41.622898 -0.000006
			CHANNELS 6 Xposition Yposition Zposition Xrotation Yrotation Zrotation
			JOINT Junyuan_V1:Solving:LeftFoot
			{
				OFFSET 0.000000 37.258389 -0.000006
				CHANNELS 6 Xposition Yposition Zposition Xrotation Yrotation Zrotation
				JOINT Junyuan_V1:Solving:LeftForeFoot
				{
					OFFSET 0.000000 3.234154 -0.000000
					CHANNELS 6 Xposition Yposition Zposition Xrotation Yrotation Zrotation
					JOINT Junyuan_V1:Solving:LeftToeBase
					{
						OFFSET 0.000000 0.000000 -12.665958
						CHANNELS 6 Xposition Yposition Zposition Xrotation Yrotation Zrotation
						JOINT Junyuan_V1:Solving:LeftToeBaseEnd
						{
							OFFSET 0.000000 0.000000 -4.326123
							CHANNELS 6 Xposition Yposition Zposition Xrotation Yrotation Zrotation
							End Site
							{
								OFFSET 0.000000 -4.326126 0.000000
							}
						}
					}
				}
			}
		}
	}
}
MOTION
Frames: 4
Frame Time: 0.041667
5.360968 -0.190874 -86.453033 -88.487204 27.128087 -176.952593 -0.000002 -8.943183 2.778115 21.912690 -0.224323 -4.069386 0.000001 -9.944813 1.753544 1.853157 0.160032 -0.906496 -0.000001 -10.059799 0.880118 -3.620796 -0.136466 -1.899900 -0.000000 -10.098236 0.000007 -3.076469 -0.585743 -4.743181 0.000002 -12.983416 -1.298340 9.204614 3.928054 1.610902 -0.000000 -8.085114 -0.707350 -10.728431 8.736647 2.455342 0.000001 -7.992667 -1.409327 -11.800852 0.841586 -0.432181 0.000000 -9.728073 0.000001 0.000000 0.000000 0.000000 -0.000001 -9.273865 -6.154357 -0.000002 21.977594 16.140956 -19.110830 -0.000018 0.000002 -4.403153 -27.337043 -85.159427 -27.916372 -0.000009 0.000009 27.637949 -55.675905 23.385892 -21.757078 -0.000028 0.000001 -0.138752 -0.743625 -10.569354 -3.656486 2.766283 -2.718913 0.000003 0.000002 -0.000009 -9.750588 0.000002 0.062509 0.000000 -0.000003 -0.000001 0.000005 -9.273857 -6.154355 -0.000003 -16.761424 -12.195386 19.110813 -0.000006 0.000012 2.760762 45.143995 81.643771 27.916367 0.000007 -0.000003 30.316662 48.929918 -23.789858 21.757071 -0.000014 -0.000002 -0.539699 2.532007 12.036702 3.656452 2.766282 -2.718912 0.000008 -0.000005 0.000004 9.750572 -0.000000 0.062499 0.000007 -0.000001 -0.000000 -8.521003 0.000002 -0.000004 -14.335326 16.260177 -0.808048 -0.000001 41.622894 -0.000010 18.290101 -0.000001 0.000001 -0.000001 37.258408 -0.000006 7.743104 -4.720987 11.271944 0.000000 3.234146 -0.000003 -0.000000 0.000001 -0.000001 0.000002 0.000004 -12.665954 -6.094716 0.000004 -0.000001 -0.000002 -0.000008 -2.833059 -0.000000 -0.000001 -0.000000 8.521001 -0.000003 -0.000005 -17.096174 1.782565 -13.205660 0.000001 41.622894 0.000005 52.290938 0.000000 0.000003 0.000001 37.258385 -0.000008 -0.111762 21.368240 18.374121 -0.000002 3.234146 -0.000000 0.000001 0.000001 -0.000001 -0.000000 -0.000007 -12.665960 -3.178485 -0.000003 -0.000002 -0.000001 -0.000010 -4.326122 -0.000005 0.000001 -0.000003 
5.428520 -0.587631 -86.514381 -88.361816 27.396608 -177.007071 -0.000000 -8.943203 2.778127 21.963288 -0.255444 -4.065316 -0.000001 -9.944815 1.753545 1.891490 0.152416 -0.893717 0.000001 -10.059812 0.880121 -3.600486 -0.400486 -1.926092 0.000003 -10.098247 0.000001 -3.065159 -0.657744 -4.808418 -0.000001 -12.983461 -1.298364 9.254829 4.012303 1.556344 0.000001 -8.085107 -0.707350 -10.796019 9.132942 2.526186 0.000001 -7.992682 -1.409320 -11.852057 0.893588 -0.475560 0.000000 -9.728111 0.000004 0.000000 -0.000001 0.000000 0.000000 -9.273907 -6.154374 -0.000007 21.900385 16.313176 -19.110826 -0.000019 0.000001 -4.644217 -27.462265 -85.223685 -27.916359 0.000002 -0.000005 28.103800 -56.014453 23.884275 -21.757084 -0.000016 -0.000000 -0.128270 -0.686472 -10.584006 -3.656478 2.766285 -2.718912 -0.000000 0.000002 0.000001 -9.750585 0.000014 0.062491 0.000000 0.000006 0.000003 0.000005 -9.273907 -6.154372 0.000001 -16.829952 -12.176547 19.110809 -0.000026 0.000010 3.140714 44.995497 81.395679 27.916363 -0.000003 -0.000005 30.097171 49.381875 -23.747784 21.757076 -0.000017 0.000001 -0.583007 2.713754 12.129702 3.656465 2.766275 -2.718916 0.000001 0.000000 0.000002 9.750568 -0.000013 0.062497 0.000003 0.000001 -0.000004 -8.521002 -0.000016 0.000008 -13.867310 16.201513 -0.987556 0.000001 41.622890 -0.000000 18.186328 0.000002 0.000001 -0.000000 37.258389 -0.000008 7.537356 -4.420102 11.247537 0.000002 3.234146 0.000001 0.000001 0.000001 -0.000000 0.000002 -0.000000 -12.665956 -6.209182 0.000004 -0.000000 -0.000002 -0.000008 -2.833071 -0.000000 0.000004 -0.000000 8.521002 -0.000012 0.000008 -18.050686 0.868624 -13.134106 -0.000001 41.622929 -0.000010 51.379480 0.000003 0.000004 0.000003 37.258389 -0.000005 -0.328316 21.810835 18.681491 -0.000001 3.234154 0.000001 -0.000001 0.000001 -0.000002 -0.000001 -0.000005 -12.665961 -2.634068 0.000002 -0.000000 -0.000001 -0.000008 -4.326123 -0.000002 -0.000000 0.000002 
5.489826 -0.953630 -86.564743 -88.280537 27.633851 -177.026919 -0.000003 -8.943181 2.778111 22.023919 -0.304876 -4.103004 -0.000002 -9.944810 1.753542 1.903109 0.141080 -0.874337 0.000001 -10.059804 0.880121 -3.617362 -0.696063 -1.925431 -0.000001 -10.098239 0.000001 -3.068234 -0.726414 -4.863512 0.000003 -12.983456 -1.298320 9.276362 4.071733 1.462954 0.000002 -8.085119 -0.707358 -10.821647 9.522240 2.628609 0.000001 -7.992701 -1.409331 -11.874480 0.946997 -0.515123 0.000000 -9.728073 0.000002 0.000000 0.000002 -0.000000 0.000001 -9.273941 -6.154337 -0.000007 21.840812 16.527939 -19.110823 -0.000029 -0.000001 -4.812643 -27.539615 -85.324704 -27.916365 -0.000009 0.000006 29.054993 -56.421310 24.837314 -21.757065 -0.000009 -0.000000 -0.086204 -0.460563 -10.600609 -3.656464 2.766283 -2.718907 0.000001 -0.000010 -0.000001 -9.750564 0.000004 0.062501 -0.000002 -0.000003 0.000001 0.000005 -9.273922 -6.154340 -0.000005 -16.872942 -12.168837 19.110826 -0.000025 0.000009 3.589164 44.921099 81.096352 27.916382 -0.000004 0.000008 29.755880 49.935267 -23.630286 21.757084 -0.000011 0.000005 -0.603338 2.805056 12.143896 3.656468 2.766272 -2.718909 0.000003 -0.000003 0.000005 9.750581 -0.000013 0.062498 0.000002 0.000002 0.000002 -8.521006 0.000011 -0.000007 -13.465774 16.178005 -1.164562 0.000003 41.622875 -0.000007 18.096282 -0.000001 0.000001 0.000001 37.258408 -0.000003 7.319989 -4.178201 11.205718 -0.000001 3.234146 -0.000002 -0.000001 -0.000002 -0.000002 0.000001 0.000003 -12.665956 -6.207986 -0.000001 0.000001 -0.000002 -0.000015 -2.833069 -0.000000 0.000002 -0.000001 8.521000 0.000001 -0.000007 -18.968566 -0.004678 -13.040129 -0.000004 41.622917 -0.000002 50.203601 0.000007 -0.000000 -0.000000 37.258385 -0.000009 -0.377470 21.516814 18.843430 -0.000001 3.234138 -0.000001 0.000000 0.000001 -0.000003 -0.000003 -0.000008 -12.665959 -4.763253 -0.000001 -0.000000 0.000001 -0.000007 -4.326123 0.000001 -0.000002 0.000006 
5.538262 -1.321060 -86.615288 -88.163296 27.858542 -177.100330 -0.000004 -8.943217 2.778121 22.095904 -0.331212 -4.088261 -0.000000 -9.944811 1.753541 1.923848 0.130936 -0.862089 0.000000 -10.059808 0.880120 -3.630270 -0.974523 -1.943465 -0.000001 -10.098232 0.000003 -3.080358 -0.833388 -4.912299 -0.000000 -12.983453 -1.298344 9.357964 4.208778 1.380364 -0.000000 -8.085107 -0.707344 -10.848050 9.910541 2.730910 0.000001 -7.992722 -1.409339 -11.896421 0.997615 -0.550095 -0.000000 -9.728065 0.000002 0.000000 0.000002 -0.000000 -0.000009 -9.273880 -6.154372 -0.000006 21.817074 16.707906 -19.110819 -0.000014 -0.000002 -4.989499 -27.675189 -85.395308 -27.916355 -0.000004 -0.000000 29.312419 -56.845930 25.176096 -21.757072 -0.000022 0.000005 -0.055649 -0.294224 -10.709170 -3.656486 2.766282 -2.718900 -0.000003 -0.000002 -0.000009 -9.750585 0.000001 0.062521 -0.000003 -0.000003 0.000003 -0.000004 -9.273872 -6.154370 0.000000 -16.424981 -12.871509 19.110815 -0.000022 0.000011 2.641610 43.222619 82.782938 27.916378 -0.000006 -0.000014 29.967072 48.958376 -23.503188 21.757092 -0.000021 -0.000006 -1.086911 4.329586 14.107102 3.656480 2.766271 -2.718905 -0.000001 -0.000005 0.000000 9.750569 -0.000004 0.062500 0.000006 0.000000 -0.000003 -8.521006 -0.000016 0.000003 -13.010511 16.320353 -1.270625 0.000001 41.622898 -0.000009 17.969212 0.000001 0.000001 0.000002 37.258408 -0.000008 6.768238 -3.997599 10.623009 -0.000002 3.234146 -0.000003 0.000001 -0.000000 0.000001 -0.000001 -0.000009 -12.665958 -4.755913 -0.000001 -0.000001 0.000000 -0.000008 -2.833065 -0.000001 -0.000001 0.000000 8.521001 -0.000028 0.000001 -19.788258 -0.828842 -12.875590 -0.000004 41.622902 -0.000006 48.832461 0.000000 0.000002 0.000001 37.258381 -0.000007 -0.063428 21.583975 18.722848 0.000000 3.234146 0.000000 0.000003 -0.000004 -0.000000 0.000001 -0.000009 -12.665957 -4.410861 -0.000001 -0.000000 -0.000001 -0.000001 -4.326125 -0.000001 0.000002 0.000001 
